<?xml version="1.0" encoding="utf-8"?>
<!-- Generator: Adobe Illustrator 16.0.0, SVG Export Plug-In . SVG Version: 6.00 Build 0)  -->
<!DOCTYPE svg PUBLIC "-//W3C//DTD SVG 1.1//EN" "http://www.w3.org/Graphics/SVG/1.1/DTD/svg11.dtd">
<svg version="1.1" id="Layer_1" xmlns="http://www.w3.org/2000/svg" xmlns:xlink="http://www.w3.org/1999/xlink" x="0px" y="0px"
	 width="60px" height="60px" viewBox="0 0 60 60" enable-background="new 0 0 60 60" xml:space="preserve">
<path fill="#E1FFF5" d="M60,40c0,11.046-8.954,20-20,20H20C8.954,60,0,51.046,0,40V20C0,8.954,8.954,0,20,0h20
	c11.046,0,20,8.954,20,20V40z"/>
<g opacity="0.6">
	<path fill="none" d="M5.651,55.25c0-16.666,0-33.334,0-50c16.667,0,33.333,0,50,0c0,16.666,0,33.334,0,50
		C38.984,55.25,22.318,55.25,5.651,55.25z M40.735,16.428c0.208-0.075,0.472-0.176,0.739-0.265c3.176-1.05,6.352-2.103,9.531-3.142
		c0.724-0.236,1.173-0.65,0.88-1.438c-0.276-0.746-0.847-1.042-1.641-0.746c-0.214,0.08-0.427,0.16-0.639,0.241
		c-3.486,1.345-6.969,2.698-10.463,4.021c-0.357,0.135-0.845,0.226-1.175,0.094c-5.018-2.006-10.198-2.533-15.519-1.738
		c-4.249,0.635-8.209,2.018-11.511,4.883c-2.45,2.127-3.855,4.727-3.751,8.104c0.111,3.577,0.039,7.16,0.02,10.741
		c-0.009,1.505,0.376,2.889,1.106,4.188c1.405,2.503,3.546,4.217,6.049,5.5c5.303,2.719,10.947,3.378,16.792,2.616
		c3.955-0.516,7.666-1.744,10.91-4.143c3.148-2.328,4.931-5.334,4.787-9.396c-0.114-3.219,0.055-6.447-0.06-9.666
		c-0.048-1.369-0.493-2.725-0.763-4.085c-0.042-0.209-0.114-0.411-0.18-0.643c0.198-0.041,0.322-0.074,0.449-0.093
		c2.219-0.336,4.438-0.665,6.654-1.007c1.026-0.158,1.414-0.801,1.006-1.638c-0.333-0.682-0.911-0.757-1.574-0.618
		c-2.291,0.477-4.58,0.963-6.877,1.412c-0.383,0.075-0.926,0.141-1.178-0.061C43.096,18.564,41.935,17.484,40.735,16.428z"/>
	<path fill-rule="evenodd" clip-rule="evenodd" d="M40.735,16.428c1.199,1.057,2.36,2.137,3.596,3.125
		c0.252,0.201,0.795,0.136,1.178,0.061c2.297-0.449,4.586-0.936,6.877-1.412c0.663-0.139,1.241-0.063,1.574,0.618
		c0.408,0.837,0.021,1.479-1.006,1.638c-2.217,0.342-4.436,0.671-6.654,1.007c-0.127,0.019-0.251,0.052-0.449,0.093
		c0.065,0.231,0.138,0.434,0.18,0.643c0.27,1.36,0.715,2.716,0.763,4.085c0.114,3.219-0.055,6.447,0.06,9.666
		c0.144,4.062-1.639,7.067-4.787,9.396c-3.244,2.398-6.955,3.627-10.91,4.143c-5.845,0.762-11.489,0.103-16.792-2.616
		c-2.503-1.283-4.644-2.997-6.049-5.5c-0.73-1.3-1.115-2.684-1.106-4.188c0.02-3.581,0.092-7.164-0.02-10.741
		c-0.104-3.378,1.301-5.978,3.751-8.104c3.302-2.865,7.262-4.248,11.511-4.883c5.32-0.795,10.501-0.268,15.519,1.738
		c0.33,0.132,0.817,0.041,1.175-0.094c3.494-1.322,6.977-2.676,10.463-4.021c0.212-0.081,0.425-0.161,0.639-0.241
		c0.794-0.296,1.364,0,1.641,0.746c0.293,0.787-0.156,1.201-0.88,1.438c-3.18,1.039-6.355,2.092-9.531,3.142
		C41.207,16.252,40.943,16.353,40.735,16.428z M41.854,20.352c0.034-0.1,0.067-0.201,0.102-0.301
		c-1.22-0.771-2.416-1.584-3.675-2.285c-0.363-0.203-0.952-0.221-1.361-0.088c-6.333,2.051-12.655,4.133-18.972,6.236
		c-0.45,0.149-0.807,0.562-1.245,0.772c-0.252,0.121-0.632,0.188-0.86,0.079c-0.173-0.082-0.336-0.539-0.255-0.718
		c0.103-0.229,0.435-0.424,0.703-0.491c0.445-0.111,0.956-0.008,1.374-0.168c5.583-2.129,11.153-4.285,16.726-6.44
		c0.238-0.092,0.459-0.227,0.867-0.431c-4.854-1.406-9.513-1.583-14.211-0.586c-3.588,0.763-6.907,2.094-9.508,4.805
		c-2.777,2.895-2.97,6.606-0.271,9.543c1.203,1.311,2.707,2.508,4.309,3.258c7.414,3.477,14.948,3.459,22.455,0.229
		c2.085-0.896,3.902-2.219,5.23-4.11c1.36-1.938,1.739-4.026,0.883-6.281c-0.552-1.451-0.662-1.497-2.18-1.265
		c-6.713,1.031-13.433,2.017-20.137,3.103c-1.621,0.263-3.373,0.072-4.832,1.129c-0.133,0.097-0.58-0.067-0.742-0.239
		c-0.131-0.14-0.151-0.549-0.037-0.706c0.138-0.19,0.465-0.323,0.716-0.333c0.487-0.021,1.003,0.175,1.467,0.082
		c6.211-1.244,12.415-2.521,18.621-3.793C38.632,21.021,40.242,20.686,41.854,20.352z M9.362,31.532c0,1.745,0.058,3.267-0.013,4.78
		c-0.125,2.719,0.936,4.904,2.979,6.58c1.12,0.919,2.354,1.767,3.663,2.375c5.146,2.396,10.562,2.83,16.108,1.863
		c3.438-0.601,6.655-1.77,9.374-4.049c2.082-1.744,3.271-3.911,3.151-6.709c-0.056-1.299-0.005-2.603-0.014-3.904
		c-0.002-0.232-0.062-0.465-0.105-0.773C36.372,40.564,17.247,40.361,9.362,31.532z"/>
	<path fill-rule="evenodd" clip-rule="evenodd" fill="none" d="M41.854,20.352c-1.611,0.334-3.222,0.67-4.833,1
		c-6.206,1.271-12.41,2.549-18.621,3.793c-0.464,0.093-0.979-0.104-1.467-0.082c-0.251,0.01-0.578,0.143-0.716,0.333
		c-0.114,0.157-0.094,0.566,0.037,0.706c0.162,0.172,0.609,0.336,0.742,0.239c1.459-1.057,3.211-0.866,4.832-1.129
		c6.704-1.086,13.424-2.071,20.137-3.103c1.518-0.232,1.628-0.187,2.18,1.265c0.856,2.255,0.478,4.344-0.883,6.281
		c-1.328,1.892-3.146,3.214-5.23,4.11c-7.507,3.23-15.041,3.248-22.455-0.229c-1.602-0.75-3.105-1.947-4.309-3.258
		c-2.699-2.937-2.507-6.648,0.271-9.543c2.601-2.711,5.92-4.042,9.508-4.805c4.698-0.997,9.357-0.82,14.211,0.586
		c-0.408,0.204-0.629,0.339-0.867,0.431c-5.572,2.155-11.143,4.312-16.726,6.44c-0.418,0.16-0.929,0.057-1.374,0.168
		c-0.269,0.067-0.601,0.263-0.703,0.491c-0.081,0.179,0.082,0.636,0.255,0.718c0.229,0.108,0.608,0.042,0.86-0.079
		c0.438-0.21,0.795-0.623,1.245-0.772c6.316-2.104,12.639-4.186,18.972-6.236c0.409-0.133,0.998-0.115,1.361,0.088
		c1.259,0.701,2.455,1.515,3.675,2.285C41.921,20.15,41.888,20.252,41.854,20.352z"/>
	<path fill-rule="evenodd" clip-rule="evenodd" fill="none" d="M9.362,31.532c7.885,8.829,27.01,9.032,35.145,0.163
		c0.043,0.309,0.104,0.541,0.105,0.773c0.009,1.302-0.042,2.605,0.014,3.904c0.119,2.798-1.069,4.965-3.151,6.709
		c-2.719,2.279-5.937,3.448-9.374,4.049c-5.546,0.967-10.962,0.532-16.108-1.863c-1.309-0.608-2.543-1.456-3.663-2.375
		c-2.044-1.676-3.104-3.861-2.979-6.58C9.42,34.799,9.362,33.277,9.362,31.532z"/>
</g>
<g>
</g>
<g>
</g>
<g>
</g>
<g>
</g>
<g>
</g>
<g>
</g>
<g>
</g>
<g>
</g>
<g>
</g>
<g>
</g>
<g>
</g>
<g>
</g>
<g>
</g>
<g>
</g>
<g>
</g>
</svg>
