<?xml version="1.0" encoding="UTF-8" standalone="no"?>
<!-- Created with Inkscape (http://www.inkscape.org/) -->

<svg
   xmlns:dc="http://purl.org/dc/elements/1.1/"
   xmlns:cc="http://creativecommons.org/ns#"
   xmlns:rdf="http://www.w3.org/1999/02/22-rdf-syntax-ns#"
   xmlns:svg="http://www.w3.org/2000/svg"
   xmlns="http://www.w3.org/2000/svg"
   version="1.1"
   width="660"
   height="660"
   id="svg2">
  <defs
     id="defs4" />
  <metadata
     id="metadata7">
    <rdf:RDF>
      <cc:Work
         rdf:about="">
        <dc:format>image/svg+xml</dc:format>
        <dc:type
           rdf:resource="http://purl.org/dc/dcmitype/StillImage" />
        <dc:title></dc:title>
      </cc:Work>
    </rdf:RDF>
  </metadata>
  <g
     transform="translate(-41.972637,-196.24991)"
     id="layer1">
    <path
       d="m 285.39578,207.85617 c -3.28552,11.49631 -0.78392,33.64355 5.01521,61.09217 54.61257,-17.37709 111.3411,-16.40387 162.93767,-0.0605 5.79301,-27.39892 8.24996,-49.51285 5.01118,-61.05198 -55.32295,-15.05152 -114.89873,-15.84634 -172.96406,0.0203 z m -77.48887,32.13072 c -52.25274,29.85805 -93.78392,72.55627 -122.23676,122.32341 5.870259,10.4503 23.24113,24.34986 46.71376,39.62683 24.92441,-48.09168 64.36195,-88.94305 115.30781,-115.29391 -15.3006,-23.49782 -29.21861,-40.88829 -39.66935,-46.70416 -0.036,0.0205 -0.0795,0.0273 -0.11546,0.0478 z m 327.78364,-0.16743 c -10.45244,5.85513 -24.36615,23.2334 -39.65574,46.72566 48.16786,24.89895 89.10347,64.34001 115.50309,115.32256 23.5208,-15.31431 40.90433,-29.21753 46.70421,-39.66932 -29.90467,-52.33422 -72.68462,-93.92261 -122.55156,-122.3789 z M 53.63377,439.59515 c -15.113694,55.36183 -15.946425,114.98704 -0.08818,173.11025 11.505959,3.27375 33.638487,0.82398 61.07533,-4.97438 -17.375933,-54.67405 -16.334381,-111.46013 0.0769,-163.09582 -27.405844,-5.79613 -49.517979,-8.27612 -61.064,-5.04005 z m 78.6701,210.82622 c -23.5184,15.31231 -40.926093,29.22798 -46.733077,39.68127 29.829237,52.29494 72.510337,93.86915 122.272817,122.35909 10.44942,-5.7901 24.355,-23.17743 39.66769,-46.6968 C 199.44478,740.81852 158.6275,701.37189 132.30387,650.42137 z M 629.2328,444.58689 c 17.42805,54.68555 16.43235,111.48499 0.0456,163.14655 27.47096,5.80489 49.61433,8.25607 61.09782,4.95841 15.0678,-55.35384 15.86032,-114.96346 -0.0273,-173.06243 -11.48397,-3.30102 -33.63399,-0.84994 -61.11615,4.95747 z M 290.23333,783.50878 c -5.80329,27.48741 -8.24846,49.62548 -4.92955,61.0858 55.39044,15.12147 115.04535,15.93592 173.19704,0.0523 3.27393,-11.50429 0.82435,-33.63787 -4.97439,-61.07527 -54.73924,17.4174 -111.6008,16.38985 -163.2931,-0.0628 z M 611.61617,650.48919 c -24.92155,48.13486 -64.38949,89.01852 -115.37048,115.38755 15.30949,23.51476 29.20066,40.93499 39.65245,46.74498 52.33097,-29.86931 93.90754,-72.62562 122.38603,-122.45288 -5.77098,-10.44642 -23.15156,-24.36149 -46.66798,-39.6796 z"
       id="path2985-0-4-82"
       style="fill:#535d6c;fill-opacity:1;stroke:none" />
    <path
       d="m 253.08623,295.09482 c -49.72429,25.50349 -88.1402,65.32952 -112.24685,112.23372 15.60483,9.79051 33.35775,20.02464 51.94855,30.22174 18.8784,-38.17043 49.96936,-70.47844 90.57428,-90.50778 -10.20514,-18.60217 -20.47865,-36.33864 -30.27598,-51.94768 z m 39.45759,-16.34385 c 4.10938,17.96385 9.41597,37.76074 15.35311,58.12893 42.83749,-14.53641 87.62165,-13.67619 127.93392,-0.0688 5.93232,-20.35064 11.25301,-40.14946 15.36315,-58.10312 -50.19335,-16.09059 -105.48457,-17.08144 -158.65018,0.043 z m 198.09957,16.24962 c -9.78566,15.59761 -20.02941,33.36692 -30.22177,51.94849 38.23902,18.84422 70.62524,49.93228 90.70498,90.56018 18.58715,-10.19683 36.37373,-20.42951 51.97165,-30.21822 -25.55164,-49.77433 -65.46574,-88.20552 -112.45486,-112.29045 z m -366.13748,151.7604 c -16.1629,50.2287 -17.2103,105.58242 -0.0943,158.80834 17.96169,-4.10966 37.76318,-9.41634 58.129,-15.3531 -14.52751,-42.89828 -13.61459,-87.74628 0.0685,-128.09211 -20.35705,-5.9345 -40.14397,-11.25162 -58.10319,-15.36313 z m 68.18039,168.03075 c -18.58897,10.19802 -36.3316,20.44501 -51.93083,30.23513 25.48318,49.74278 65.29216,88.17183 112.18807,112.29951 9.79055,-15.60068 20.02231,-33.35387 30.22177,-51.9485 -38.1538,-18.89648 -70.47035,-49.97471 -90.47901,-90.58614 z m 368.66762,-152.6732 c 14.57067,42.89335 13.69003,87.75523 0.042,128.11397 20.34867,5.93114 40.14611,11.22857 58.09123,15.33427 16.1283,-50.25276 17.11659,-105.61572 -0.057,-158.84711 -17.94223,4.10569 -37.73341,9.46955 -58.07622,15.39887 z M 307.75114,715.58557 c -5.93334,20.36196 -11.25788,40.14889 -15.36315,58.10312 50.28818,16.20067 105.71379,17.24541 159.0056,0.0803 -4.10974,-17.95989 -9.47445,-37.74113 -15.41083,-58.10503 -42.9458,14.55837 -87.84564,13.63801 -128.23162,-0.0784 z m 243.44905,-100.7384 c -18.86834,38.21328 -49.96288,70.56717 -90.59615,90.61829 10.20181,18.5971 20.42471,36.36602 30.21826,51.9716 49.77914,-25.52416 88.21911,-65.40437 112.32644,-112.36815 -15.59844,-9.7927 -33.35495,-20.01915 -51.94855,-30.22174 z"
       id="path2985-0-4-8"
       style="fill:#535d6c;fill-opacity:1;stroke:none" />
    <path
       d="m 288.11675,355.82681 c -38.86793,19.0754 -68.57925,49.98535 -86.55004,86.50753 17.58082,9.50206 35.65906,18.8714 53.21788,27.7346 12.41554,-25.91508 33.41068,-47.82539 61.05322,-61.03326 -8.86034,-17.55056 -18.2223,-35.6372 -27.72106,-53.20887 z m 22.62966,-9.3735 c 5.70866,19.14253 11.84858,38.56188 17.99378,57.23803 28.85734,-10.20455 59.16002,-9.56164 86.24659,-0.0479 6.15092,-18.69379 12.2932,-38.10962 18.00742,-57.27086 -38.49987,-13.0769 -81.32024,-13.89946 -122.24779,0.0807 z m 144.89114,9.27455 c -9.50192,17.58041 -18.8709,35.65815 -27.73462,53.21782 25.9924,12.38274 47.98496,33.38951 61.24238,61.06801 17.55739,-8.86368 35.63346,-18.22033 53.20893,-27.72103 -19.12508,-38.90511 -50.1164,-68.62444 -86.71669,-86.5648 z M 192.18258,464.98963 c -13.14624,38.52784 -14.0373,81.3961 -0.0686,122.37712 19.1427,-5.70914 38.5488,-11.8768 57.22614,-18.02262 -10.18176,-28.90203 -9.50918,-59.26006 0.0725,-86.364 -18.67801,-6.14566 -38.0848,-12.28051 -57.23011,-17.9905 z m 62.48501,117.29768 c -17.5438,8.8569 -35.61654,18.21522 -53.18006,27.70908 19.04655,38.87295 49.92492,68.59075 86.42103,86.58581 9.49917,-17.57528 18.88397,-35.63045 27.74659,-53.18896 -25.89922,-12.43991 -47.8056,-33.449 -60.98756,-61.10593 z m 239.86288,-99.35435 c 10.25098,28.92146 9.59186,59.31426 0.033,86.45555 18.69055,6.1502 38.08963,12.30784 57.24207,18.01936 13.12729,-38.56007 13.96103,-81.45787 -0.0659,-122.45671 -19.13567,5.70671 -38.53574,11.83764 -57.20923,17.9818 z M 328.59521,648.75319 c -6.14639,18.68385 -12.31134,38.09647 -18.01938,57.242 38.58804,13.19673 81.53389,14.0988 122.5863,0.0834 -5.70929,-19.14301 -11.84738,-38.55904 -17.99377,-57.23804 -28.97366,10.23795 -59.40652,9.54177 -86.57315,-0.0874 z m 160.60832,-66.42468 c -12.40825,25.9668 -33.41928,47.92773 -61.10395,61.15573 8.86191,17.55419 18.22197,35.63563 27.72106,53.20887 38.91024,-19.09616 68.63601,-50.05586 86.60076,-86.63 -17.57745,-9.50369 -35.65672,-18.86749 -53.21787,-27.7346 z"
       id="path2985-0"
       style="fill:#535d6c;fill-opacity:1;stroke:none" />
    <path
       d="m 320.31566,417.96841 c -25.66033,12.20995 -45.12809,32.54023 -56.60506,56.5869 19.55232,9.77977 37.8186,18.63013 53.90822,26.29888 5.7809,-12.37294 15.78885,-22.81146 29.02251,-28.96366 -7.66951,-16.08966 -16.54363,-34.36792 -26.32567,-53.92212 z m 11.57461,-4.79435 c 6.90998,20.74384 13.58859,39.93151 19.54255,56.73178 13.66346,-4.99112 28.07443,-4.71043 40.87997,-0.0923 5.95093,-16.79404 12.63014,-35.95748 19.53469,-56.68608 -25.10188,-8.85616 -53.20708,-9.46203 -79.95721,0.0466 z m 91.52628,4.69762 c -9.78244,19.55735 -18.61516,37.84113 -26.28695,53.93702 12.44299,5.74706 22.96174,15.74507 29.16079,29.00848 16.09587,-7.67267 34.38405,-16.51679 53.93413,-26.29678 -12.25815,-25.7099 -32.67523,-45.20086 -56.80797,-56.64872 z m -164.50792,68.2766 c -8.92019,25.12248 -9.56729,53.27896 -0.0738,80.07463 20.7365,-6.90771 39.93188,-13.58874 56.73184,-19.54252 -4.98174,-13.72478 -4.6125,-28.185 0.0858,-41.02135 -16.79817,-5.95261 -36.00534,-12.60274 -56.74387,-19.51076 z m 169.36646,19.46038 c 5.04906,13.73486 4.74453,28.2212 0.0775,41.08898 16.81104,5.95776 35.98574,12.64237 56.72696,19.55158 8.90124,-25.156 9.49406,-53.34051 -0.0606,-80.15422 -20.7403,6.90874 -39.93638,13.55738 -56.74379,19.51366 z m -110.71176,45.89207 c -16.08932,7.6694 -34.39867,16.48951 -53.94609,26.26792 12.18248,25.68791 32.48524,45.19312 56.52428,56.6986 9.77867,-19.55095 18.61419,-37.83776 26.28695,-53.93703 -12.33766,-5.8032 -22.74144,-15.80416 -28.86514,-29.02949 z m 33.65308,31.03663 c -5.95367,16.8039 -12.57827,36.00237 -19.4819,56.73185 25.18165,8.97209 53.41732,9.63078 80.28376,0.0886 -6.90937,-20.74137 -13.55771,-39.93771 -19.51368,-56.74374 -13.81151,5.0452 -28.37921,4.68589 -41.28818,-0.0768 z m 75.14093,-31.02296 c -5.77078,12.43404 -15.77781,22.93962 -29.06128,29.11498 7.67192,16.09465 16.51647,34.3828 26.29681,53.93408 25.71661,-12.22853 45.21094,-32.61393 56.68465,-56.72131 -19.54212,-9.7777 -37.82622,-18.65458 -53.92018,-26.32775 z"
       id="path2985-1"
       style="fill:#535d6c;fill-opacity:1;stroke:none" />
  </g>
</svg>
