<?xml version="1.0" encoding="utf-8"?>
<!-- Generator: Adobe Illustrator 16.0.0, SVG Export Plug-In . SVG Version: 6.00 Build 0)  -->
<!DOCTYPE svg PUBLIC "-//W3C//DTD SVG 1.1//EN" "http://www.w3.org/Graphics/SVG/1.1/DTD/svg11.dtd">
<svg version="1.1" id="Layer_1" xmlns="http://www.w3.org/2000/svg" xmlns:xlink="http://www.w3.org/1999/xlink" x="0px" y="0px"
	 width="60px" height="60px" viewBox="0 0 60 60" enable-background="new 0 0 60 60" xml:space="preserve">
<polygon fill="#FFFFFF" points="29.936,8 42.952,0.971 45.572,15.53 59.184,21.324 49.434,32.45 53.391,46.705 38.613,46.02 
	29.936,58 21.258,46.02 6.48,46.705 10.437,32.45 0.688,21.324 14.299,15.53 16.919,0.971 "/>
<path opacity="0.6" d="M16,34.244c-1,0.074-2.448,1.192-2.448,2.574c0,1.381,1.448,2.498,2.448,2.572V34.244z"/>
<path opacity="0.6" d="M18,29.391c2-0.074,2.448-1.192,2.448-2.573S20,24.318,18,24.245V29.391z"/>
<path opacity="0.6" d="M30,14.245c-1,0.074-2.448,1.192-2.448,2.573S29,19.317,30,19.391V14.245z"/>
<circle opacity="0.6" cx="38.298" cy="25.541" r="1.588"/>
<circle opacity="0.6" cx="42.298" cy="31.541" r="1.588"/>
<circle opacity="0.6" cx="45.298" cy="37.541" r="1.588"/>
<g>
</g>
<g>
</g>
<g>
</g>
<g>
</g>
<g>
</g>
<g>
</g>
<g>
</g>
<g>
</g>
<g>
</g>
<g>
</g>
<g>
</g>
<g>
</g>
<g>
</g>
<g>
</g>
<g>
</g>
</svg>
