<?xml version="1.0" encoding="utf-8"?>
<!-- Generator: Adobe Illustrator 16.0.0, SVG Export Plug-In . SVG Version: 6.00 Build 0)  -->
<!DOCTYPE svg PUBLIC "-//W3C//DTD SVG 1.1//EN" "http://www.w3.org/Graphics/SVG/1.1/DTD/svg11.dtd">
<svg version="1.1" id="Layer_1" xmlns="http://www.w3.org/2000/svg" xmlns:xlink="http://www.w3.org/1999/xlink" x="0px" y="0px"
	 width="60px" height="60px" viewBox="0 0 60 60" enable-background="new 0 0 60 60" xml:space="preserve">
<polygon fill="#FFFFFF" points="30.078,8 43.095,0.971 45.715,15.53 59.326,21.324 49.576,32.45 53.533,46.705 38.756,46.02 
	30.078,58 21.4,46.02 6.623,46.705 10.58,32.45 0.83,21.324 14.441,15.53 17.062,0.971 "/>
<circle opacity="0.6" cx="17.648" cy="19.317" r="1.938"/>
<circle opacity="0.4" cx="25.125" cy="19.317" r="1.938"/>
<circle opacity="0.2" cx="32.602" cy="19.317" r="1.938"/>
<circle opacity="0.1" cx="40.079" cy="19.317" r="1.938"/>
<circle opacity="0.6" cx="19.886" cy="26.033" r="1.938"/>
<circle opacity="0.4" cx="27.364" cy="26.033" r="1.938"/>
<circle opacity="0.2" cx="34.841" cy="26.033" r="1.938"/>
<circle opacity="0.1" cx="42.318" cy="26.033" r="1.938"/>
<circle opacity="0.6" cx="17.648" cy="33.317" r="1.938"/>
<circle opacity="0.4" cx="25.125" cy="33.317" r="1.938"/>
<circle opacity="0.2" cx="32.602" cy="33.317" r="1.938"/>
<circle opacity="0.1" cx="40.079" cy="33.317" r="1.938"/>
<circle opacity="0.6" cx="19.886" cy="40.033" r="1.938"/>
<circle opacity="0.4" cx="27.364" cy="40.033" r="1.938"/>
<circle opacity="0.2" cx="34.841" cy="40.033" r="1.938"/>
<circle opacity="0.1" cx="42.318" cy="40.033" r="1.938"/>
<g>
</g>
<g>
</g>
<g>
</g>
<g>
</g>
<g>
</g>
<g>
</g>
<g>
</g>
<g>
</g>
<g>
</g>
<g>
</g>
<g>
</g>
<g>
</g>
<g>
</g>
<g>
</g>
<g>
</g>
</svg>
