<?xml version="1.0" encoding="utf-8"?>
<!-- Generator: Adobe Illustrator 16.0.0, SVG Export Plug-In . SVG Version: 6.00 Build 0)  -->
<!DOCTYPE svg PUBLIC "-//W3C//DTD SVG 1.1//EN" "http://www.w3.org/Graphics/SVG/1.1/DTD/svg11.dtd">
<svg version="1.1" id="Layer_1" xmlns="http://www.w3.org/2000/svg" xmlns:xlink="http://www.w3.org/1999/xlink" x="0px" y="0px"
	 width="60px" height="60px" viewBox="0 0 60 60" enable-background="new 0 0 60 60" xml:space="preserve">
<polygon fill="#FFFFFF" points="29.65,8 42.666,0.971 45.286,15.53 58.897,21.324 49.148,32.45 53.104,46.705 38.327,46.02 
	29.65,58 20.972,46.02 6.195,46.705 10.151,32.45 0.402,21.324 14.013,15.53 16.633,0.971 "/>
<path opacity="0.6" d="M20,18.94c-1.973,0.107-3.544,1.726-3.544,3.726c0,2,1.571,3.618,3.544,3.725V18.94z"/>
<path opacity="0.6" d="M28,26.391c2-0.107,3.545-1.726,3.545-3.726c0-2-1.545-3.618-3.545-3.725V26.391z"/>
<path opacity="0.6" d="M32,31.94c-1.973,0.106-3.544,1.726-3.544,3.726s1.571,3.618,3.544,3.725V31.94z"/>
<path opacity="0.6" d="M40,39.391c2-0.107,3.545-1.726,3.545-3.726c0-1.999-1.545-3.618-3.545-3.725V39.391z"/>
<g>
</g>
<g>
</g>
<g>
</g>
<g>
</g>
<g>
</g>
<g>
</g>
<g>
</g>
<g>
</g>
<g>
</g>
<g>
</g>
<g>
</g>
<g>
</g>
<g>
</g>
<g>
</g>
<g>
</g>
</svg>
