<?xml version="1.0" encoding="utf-8"?>
<!-- Generator: Adobe Illustrator 16.0.0, SVG Export Plug-In . SVG Version: 6.00 Build 0)  -->
<!DOCTYPE svg PUBLIC "-//W3C//DTD SVG 1.1//EN" "http://www.w3.org/Graphics/SVG/1.1/DTD/svg11.dtd">
<svg version="1.1" id="Layer_1" xmlns="http://www.w3.org/2000/svg" xmlns:xlink="http://www.w3.org/1999/xlink" x="0px" y="0px"
	 width="60px" height="60px" viewBox="0 0 60 60" enable-background="new 0 0 60 60" xml:space="preserve">
<circle fill="#FFFFFF" cx="30" cy="30" r="30"/>
<path opacity="0.6" d="M20,19.822c-1.973,0.107-3.545,1.726-3.545,3.726c0,2,1.572,3.618,3.545,3.725V19.822z"/>
<path opacity="0.6" d="M28,27.272c2-0.107,3.545-1.726,3.545-3.726c0-2-1.545-3.618-3.545-3.725V27.272z"/>
<path opacity="0.6" d="M32,32.822c-1.973,0.106-3.545,1.726-3.545,3.726s1.572,3.618,3.545,3.725V32.822z"/>
<path opacity="0.6" d="M40,40.272c2-0.107,3.545-1.726,3.545-3.726c0-1.999-1.545-3.618-3.545-3.725V40.272z"/>
<g>
</g>
<g>
</g>
<g>
</g>
<g>
</g>
<g>
</g>
<g>
</g>
<g>
</g>
<g>
</g>
<g>
</g>
<g>
</g>
<g>
</g>
<g>
</g>
<g>
</g>
<g>
</g>
<g>
</g>
</svg>
